# Blender v2.69 (sub 0) OBJ File: ''
# www.blender.org
o Cube
v 1.000000 7.500000 1.000000
v -1.000000 7.500000 1.000000
v -1.000000 7.500000 -1.000000
v 1.000000 7.500000 -1.000000
v 0.999999 9.500000 0.650001
v -1.000001 9.500000 0.649999
v -1.000000 9.500000 -0.650000
v 1.000000 9.500000 -0.650000
v 7.500000 6.000001 0.650002
v 7.500000 6.000001 -0.649998
v 6.000000 8.000001 0.650002
v 6.000000 8.000001 -0.649998
v -7.500000 5.999999 0.649998
v -7.500000 5.999999 -0.650002
v -6.000000 8.000000 0.649997
v -6.000000 8.000000 -0.650002
v 1.000000 7.500000 0.000000
v -1.000000 7.500000 -0.000000
v 7.500000 6.000001 0.000002
v 5.250000 6.000001 -0.999999
v 5.250000 6.000001 1.000001
v -7.500000 5.999999 -0.000002
v -5.250000 6.000000 -1.000001
v -5.250000 6.000000 0.999999
v 5.250000 6.000001 0.000001
v -5.250000 6.000000 -0.000001
v 7.500001 0.000001 0.650002
v 7.500001 0.000001 -0.649998
v -7.499999 -0.000001 0.649998
v -7.499999 -0.000001 -0.650002
v 7.500001 0.000001 0.000002
v 5.250001 0.000001 -0.999999
v 5.250001 0.000001 1.000001
v -7.499999 -0.000001 -0.000002
v -5.249999 -0.000000 -1.000001
v -5.249999 -0.000000 0.999999
v 5.250001 0.000001 0.000001
v -5.249999 -0.000000 -0.000001
vn 0.000000 -1.000000 0.000000
vn 0.000000 1.000000 -0.000001
vn -0.000000 0.172380 0.985031
vn -0.287348 0.957826 0.000000
vn 0.000000 0.172380 -0.985030
vn 0.287348 0.957826 0.000000
vn 0.800000 0.600000 0.000000
vn 0.152696 0.114522 -0.981615
vn 0.152695 0.114521 0.981616
vn -1.000000 -0.000000 0.000000
vn -0.800000 0.600000 -0.000001
vn -0.152695 0.114521 -0.981615
vn -0.152696 0.114522 0.981615
vn 0.000000 -1.000000 0.000001
vn 1.000000 0.000000 0.000000
vn -0.332820 -0.942990 -0.000001
vn -0.332820 -0.942990 0.000001
vn 0.332820 -0.942990 0.000000
vn -0.153707 -0.000000 0.988117
vn 0.153707 0.000000 -0.988116
vn -0.153707 -0.000000 -0.988117
vn 0.153707 0.000000 0.988117
vn 1.000000 0.000000 0.000001
vn 0.000000 1.000000 0.000001
vn -0.000001 0.172381 0.985030
vn 0.800000 0.600000 0.000001
vn 0.060728 0.172062 -0.983212
vn 0.046568 0.155224 -0.986781
vn 0.060727 0.172062 0.983213
vn 0.046567 0.155224 0.986781
vn -0.800000 0.600000 0.000000
vn -0.060728 0.172062 -0.983212
vn -0.046567 0.155224 -0.986781
vn -0.060728 0.172062 0.983212
vn -0.046568 0.155224 0.986781
vn 0.000000 -1.000000 -0.000001
vn -0.332820 -0.942990 0.000000
vn -0.153707 -0.000000 0.988116
s off
f 17//1 18//1 4//1
f 5//2 8//2 6//2
f 1//3 5//3 2//3
f 6//4 7//4 15//4
f 3//5 7//5 4//5
f 8//6 5//6 12//6
f 12//7 11//7 10//7
f 20//8 12//8 10//8
f 11//9 21//9 9//9
f 21//10 25//10 33//10
f 15//11 16//11 14//11
f 16//12 23//12 14//12
f 24//13 15//13 13//13
f 25//10 20//10 37//10
f 1//14 2//14 17//14
f 23//15 26//15 35//15
f 1//16 17//16 21//16
f 17//17 4//17 25//17
f 26//15 24//15 38//15
f 3//18 18//18 23//18
f 18//18 2//18 26//18
f 37//1 32//1 31//1
f 38//1 36//1 34//1
f 33//1 37//1 31//1
f 35//1 38//1 34//1
f 24//19 13//19 36//19
f 13//10 22//10 29//10
f 20//20 10//20 32//20
f 19//15 9//15 31//15
f 14//21 23//21 30//21
f 22//10 14//10 34//10
f 9//22 21//22 27//22
f 10//23 19//23 28//23
f 18//14 3//14 4//14
f 8//24 7//24 6//24
f 5//25 6//25 2//25
f 7//4 16//4 15//4
f 7//5 8//5 4//5
f 5//6 11//6 12//6
f 11//7 9//7 19//7
f 10//26 11//26 19//26
f 4//27 8//27 20//27
f 8//28 12//28 20//28
f 5//29 1//29 21//29
f 11//30 5//30 21//30
f 25//10 37//10 33//10
f 13//31 15//31 22//31
f 15//31 14//31 22//31
f 7//32 3//32 23//32
f 16//33 7//33 23//33
f 2//34 6//34 24//34
f 6//35 15//35 24//35
f 20//10 32//10 37//10
f 2//36 18//36 17//36
f 26//15 38//15 35//15
f 17//37 25//37 21//37
f 4//37 20//37 25//37
f 24//15 36//15 38//15
f 18//18 26//18 23//18
f 2//18 24//18 26//18
f 32//1 28//1 31//1
f 36//1 29//1 34//1
f 27//1 33//1 31//1
f 30//1 35//1 34//1
f 13//38 29//38 36//38
f 22//10 34//10 29//10
f 10//20 28//20 32//20
f 9//15 27//15 31//15
f 23//21 35//21 30//21
f 14//10 30//10 34//10
f 21//22 33//22 27//22
f 19//23 31//23 28//23
