# Blender v2.69 (sub 0) OBJ File: ''
# www.blender.org
mtllib wheel.mtl
o Cylinder
v -0.062500 0.250000 -0.000000
v 0.062500 0.250000 0.000000
v -0.062500 0.245196 -0.048773
v 0.062500 0.245196 -0.048773
v -0.062500 0.230970 -0.095671
v 0.062500 0.230970 -0.095671
v -0.062500 0.207867 -0.138893
v 0.062500 0.207867 -0.138893
v -0.062500 0.176777 -0.176777
v 0.062500 0.176777 -0.176777
v -0.062500 0.138893 -0.207867
v 0.062500 0.138893 -0.207867
v -0.062500 0.095671 -0.230970
v 0.062500 0.095671 -0.230970
v -0.062500 0.048773 -0.245196
v 0.062500 0.048773 -0.245196
v -0.062500 0.000000 -0.250000
v 0.062500 0.000000 -0.250000
v -0.062500 -0.048773 -0.245196
v 0.062500 -0.048773 -0.245196
v -0.062500 -0.095671 -0.230970
v 0.062500 -0.095671 -0.230970
v -0.062500 -0.138893 -0.207867
v 0.062500 -0.138893 -0.207867
v -0.062500 -0.176777 -0.176777
v 0.062500 -0.176777 -0.176777
v -0.062500 -0.207867 -0.138893
v 0.062500 -0.207867 -0.138893
v -0.062500 -0.230970 -0.095671
v 0.062500 -0.230970 -0.095671
v -0.062500 -0.245196 -0.048773
v 0.062500 -0.245196 -0.048773
v -0.062500 -0.250000 0.000000
v 0.062500 -0.250000 0.000000
v -0.062500 -0.245196 0.048773
v 0.062500 -0.245196 0.048773
v -0.062500 -0.230970 0.095671
v 0.062500 -0.230970 0.095671
v -0.062500 -0.207867 0.138893
v 0.062500 -0.207867 0.138893
v -0.062500 -0.176777 0.176777
v 0.062500 -0.176777 0.176777
v -0.062500 -0.138892 0.207868
v 0.062500 -0.138892 0.207868
v -0.062500 -0.095671 0.230970
v 0.062500 -0.095671 0.230970
v -0.062500 -0.048772 0.245196
v 0.062500 -0.048772 0.245196
v -0.062500 0.000000 0.250000
v 0.062500 0.000000 0.250000
v -0.062500 0.048773 0.245196
v 0.062500 0.048773 0.245196
v -0.062500 0.095671 0.230970
v 0.062500 0.095671 0.230970
v -0.062500 0.138893 0.207867
v 0.062500 0.138893 0.207867
v -0.062500 0.176777 0.176776
v 0.062500 0.176777 0.176776
v -0.062500 0.207868 0.138892
v 0.062500 0.207868 0.138892
v -0.062500 0.230970 0.095671
v 0.062500 0.230970 0.095671
v -0.062500 0.245196 0.048772
v 0.062500 0.245196 0.048772
vn 0.000000 0.995185 -0.098017
vn 0.000000 0.956940 -0.290285
vn 0.000000 0.881921 -0.471397
vn 0.000000 0.773011 -0.634393
vn 0.000000 0.634393 -0.773010
vn 0.000000 0.471397 -0.881921
vn 0.000000 0.290285 -0.956940
vn 0.000000 0.098017 -0.995185
vn 0.000000 -0.098017 -0.995185
vn 0.000000 -0.290285 -0.956940
vn 0.000000 -0.471397 -0.881921
vn 0.000000 -0.634393 -0.773010
vn 0.000000 -0.773011 -0.634393
vn 0.000000 -0.881921 -0.471397
vn 0.000000 -0.956940 -0.290285
vn 0.000000 -0.995185 -0.098017
vn -0.000000 -0.995185 0.098018
vn -0.000000 -0.956940 0.290285
vn 0.000000 -0.881921 0.471397
vn 0.000000 -0.773010 0.634394
vn 0.000000 -0.634392 0.773011
vn 0.000000 -0.471396 0.881922
vn 0.000000 -0.290284 0.956941
vn 0.000000 -0.098016 0.995185
vn -0.000000 0.098018 0.995185
vn 0.000000 0.290286 0.956940
vn -0.000000 0.471398 0.881921
vn 0.000000 0.634395 0.773009
vn 0.000000 0.773011 0.634392
vn 0.000000 0.881922 0.471396
vn 1.000000 0.000002 0.000000
vn -0.000000 0.995185 0.098017
vn -0.000000 0.956941 0.290283
vn -1.000000 -0.000002 -0.000000
vn 0.000000 0.956940 -0.290284
vn 0.000000 0.773010 -0.634393
vn 0.000000 0.634393 -0.773011
vn 0.000000 -0.773010 -0.634394
vn 0.000000 -0.956940 -0.290284
vn -0.000000 -0.995185 0.098017
vn 0.000000 -0.773010 0.634393
vn 0.000000 -0.634393 0.773011
vn 0.000000 0.634394 0.773010
vn 1.000000 0.000000 0.000000
vn 1.000000 -0.000001 0.000000
vn 1.000000 0.000001 0.000000
vn 1.000000 0.000000 0.000001
vn -0.000000 0.995185 0.098016
vn -1.000000 -0.000001 -0.000000
vn -1.000000 0.000001 -0.000000
vn -1.000000 0.000000 -0.000000
vn -1.000000 -0.000000 -0.000001
usemtl None
s off
f 1//1 2//1 3//1
f 3//2 4//2 5//2
f 5//3 6//3 7//3
f 7//4 8//4 9//4
f 9//5 10//5 11//5
f 11//6 12//6 13//6
f 13//7 14//7 15//7
f 15//8 16//8 17//8
f 17//9 18//9 19//9
f 19//10 20//10 21//10
f 21//11 22//11 23//11
f 23//12 24//12 25//12
f 25//13 26//13 27//13
f 27//14 28//14 29//14
f 29//15 30//15 31//15
f 31//16 32//16 33//16
f 33//17 34//17 35//17
f 35//18 36//18 37//18
f 37//19 38//19 39//19
f 39//20 40//20 41//20
f 41//21 42//21 43//21
f 43//22 44//22 45//22
f 45//23 46//23 47//23
f 47//24 48//24 49//24
f 49//25 50//25 51//25
f 51//26 52//26 53//26
f 53//27 54//27 55//27
f 55//28 56//28 57//28
f 57//29 58//29 59//29
f 59//30 60//30 61//30
f 4//31 2//31 6//31
f 63//32 64//32 1//32
f 61//33 62//33 63//33
f 1//34 3//34 63//34
f 2//1 4//1 3//1
f 4//35 6//35 5//35
f 6//3 8//3 7//3
f 8//36 10//36 9//36
f 10//37 12//37 11//37
f 12//6 14//6 13//6
f 14//7 16//7 15//7
f 16//8 18//8 17//8
f 18//9 20//9 19//9
f 20//10 22//10 21//10
f 22//11 24//11 23//11
f 24//12 26//12 25//12
f 26//38 28//38 27//38
f 28//14 30//14 29//14
f 30//39 32//39 31//39
f 32//16 34//16 33//16
f 34//40 36//40 35//40
f 36//18 38//18 37//18
f 38//19 40//19 39//19
f 40//41 42//41 41//41
f 42//42 44//42 43//42
f 44//22 46//22 45//22
f 46//23 48//23 47//23
f 48//24 50//24 49//24
f 50//25 52//25 51//25
f 52//26 54//26 53//26
f 54//27 56//27 55//27
f 56//43 58//43 57//43
f 58//29 60//29 59//29
f 60//30 62//30 61//30
f 2//44 64//44 6//44
f 64//45 62//45 6//45
f 62//44 60//44 6//44
f 60//44 58//44 6//44
f 58//44 56//44 6//44
f 56//44 54//44 6//44
f 54//44 52//44 6//44
f 52//44 50//44 6//44
f 50//44 48//44 6//44
f 48//44 46//44 6//44
f 46//44 44//44 6//44
f 44//44 42//44 6//44
f 42//44 40//44 6//44
f 32//46 36//46 34//46
f 38//46 36//46 32//46
f 40//44 38//44 32//44
f 6//44 40//44 32//44
f 8//44 6//44 10//44
f 6//44 32//44 10//44
f 22//47 26//47 24//47
f 22//44 28//44 26//44
f 20//44 28//44 22//44
f 18//44 28//44 20//44
f 30//44 28//44 18//44
f 30//44 18//44 16//44
f 32//44 30//44 16//44
f 32//44 16//44 14//44
f 10//44 32//44 12//44
f 32//44 14//44 12//44
f 64//48 2//48 1//48
f 62//33 64//33 63//33
f 3//49 5//49 63//49
f 5//50 7//50 63//50
f 7//51 9//51 63//51
f 9//49 11//49 63//49
f 11//51 13//51 63//51
f 13//51 15//51 63//51
f 15//51 17//51 63//51
f 17//51 19//51 63//51
f 19//51 21//51 63//51
f 21//51 23//51 63//51
f 23//51 25//51 63//51
f 35//49 31//49 33//49
f 35//49 29//49 31//49
f 37//50 29//50 35//50
f 27//51 29//51 37//51
f 25//51 27//51 37//51
f 63//51 25//51 37//51
f 41//50 37//50 39//50
f 43//49 37//49 41//49
f 51//52 47//52 49//52
f 51//51 45//51 47//51
f 63//51 37//51 43//51
f 53//51 45//51 51//51
f 53//51 43//51 45//51
f 57//52 53//52 55//52
f 57//51 43//51 53//51
f 59//51 43//51 57//51
f 61//51 63//51 43//51
f 59//51 61//51 43//51
